M48
; DRILL file {KiCad (5.1.6-0-10_14)} date Sunday, October 18, 2020 at 05:17:20 PM
; FORMAT={-:-/ absolute / inch / decimal}
; #@! TF.CreationDate,2020-10-18T17:17:20+02:00
; #@! TF.GenerationSoftware,Kicad,Pcbnew,(5.1.6-0-10_14)
FMAT,2
INCH
T1C0.0157
T2C0.0197
T3C0.0394
T4C0.0591
T5C0.0866
T6C0.0709
T7C0.1181
T8C0.1260
%
G90
G05
T1
X5.8661Y-5.7087
X5.9449Y-5.1969
T2
X4.1034Y-4.8292
X3.9149Y-5.5328
X6.6483Y-5.4392
X8.1243Y-5.4716
X7.9358Y-4.7681
X10.0301Y-4.37
X2.1976Y-3.7276
X3.1114Y-3.0554
X4.2919Y-4.1257
X7.7473Y-4.0646
X9.4933Y-5.1048
X9.8416Y-3.6664
X3.4596Y-4.4937
X10.2186Y-5.0735
X3.8367Y-3.0867
X7.292Y-5.1036
X9.3048Y-4.4013
X4.4804Y-3.4222
X5.3909Y-5.5003
X2.5459Y-5.1659
X9.6531Y-2.9629
X3.6482Y-3.7902
X6.915Y-3.6966
X7.1035Y-4.4001
X7.5588Y-3.3611
X3.2711Y-5.1972
X9.1163Y-3.6977
X8.2025Y-3.0255
X2.7344Y-4.4624
X7.4805Y-5.8072
X4.7472Y-5.1648
X5.1242Y-3.7577
X8.5795Y-4.4326
X2.3861Y-3.0241
X1.8206Y-5.1346
X8.7681Y-5.1361
X8.9278Y-2.9942
X2.9229Y-3.7589
X4.5586Y-5.8683
X4.9357Y-4.4612
X8.391Y-3.7291
X2.0091Y-4.4311
T3
X5.7055Y-3.337
X6.1055Y-3.337
T4
X5.6055Y-3.337
X5.6055Y-3.437
X5.6055Y-3.537
X5.6055Y-3.637
X5.6055Y-3.737
X5.6055Y-3.837
X5.6055Y-3.937
X5.6055Y-4.037
X5.6055Y-4.137
X5.6055Y-4.237
X5.6055Y-4.337
X5.6055Y-4.437
X5.6055Y-4.537
X6.2055Y-3.337
X6.2055Y-3.437
X6.2055Y-3.537
X6.2055Y-3.637
X6.2055Y-3.737
X6.2055Y-3.837
X6.2055Y-3.937
X6.2055Y-4.037
X6.2055Y-4.137
X6.2055Y-4.237
X6.2055Y-4.337
X6.2055Y-4.437
X6.2055Y-4.537
T5
X4.6102Y-3.8425
X9.6299Y-4.7008
X2.2205Y-4.5472
X2.5984Y-3.1417
X7.1575Y-3.6929
X7.5354Y-5.0984
X4.2362Y-5.252
X9.252Y-3.2953
T6
X3.1772Y-4.255
X3.5955Y-4.3671
X9.8546Y-5.008
X10.2729Y-4.8959
X3.5542Y-2.8479
X3.9725Y-2.96
X6.928Y-5.0381
X7.3463Y-4.926
X8.9408Y-4.3358
X9.3591Y-4.2237
X4.1979Y-3.1835
X4.6163Y-3.2955
X5.1084Y-5.2616
X5.5267Y-5.3737
X2.2634Y-4.9272
X2.6817Y-5.0393
X9.2891Y-2.8974
X9.7074Y-2.7853
X3.3657Y-3.5515
X3.784Y-3.6635
X6.551Y-3.6311
X6.9693Y-3.519
X6.7395Y-4.3346
X7.1578Y-4.2225
X7.1948Y-3.2955
X7.6131Y-3.1835
X2.9887Y-4.9585
X3.407Y-5.0706
X8.7523Y-3.6322
X9.1706Y-3.5202
X7.8385Y-2.96
X8.2568Y-2.8479
X2.4519Y-4.2237
X2.8702Y-4.3358
X7.1165Y-5.7417
X7.5349Y-5.6296
X4.4647Y-4.926
X4.883Y-5.0381
X4.8417Y-3.519
X5.26Y-3.6311
X8.2155Y-4.3671
X8.6339Y-4.255
X2.1036Y-2.7853
X2.522Y-2.8974
X1.5381Y-4.8959
X1.9564Y-5.008
X8.4041Y-5.0706
X8.8224Y-4.9585
X8.5638Y-2.9287
X8.9821Y-2.8166
X2.6404Y-3.5202
X3.0587Y-3.6322
X4.2762Y-5.6296
X4.6945Y-5.7417
X4.6532Y-4.2225
X5.0715Y-4.3346
X8.027Y-3.6635
X8.4453Y-3.5515
X1.7266Y-4.1924
X2.1449Y-4.3045
X3.8209Y-4.5905
X4.2392Y-4.7026
X3.6324Y-5.294
X4.0507Y-5.4061
X6.2843Y-5.3737
X6.7026Y-5.2616
X7.7603Y-5.4061
X8.1786Y-5.294
X7.5718Y-4.7026
X7.9901Y-4.5905
X9.6661Y-4.3045
X10.0844Y-4.1924
X1.9151Y-3.4889
X2.3334Y-3.6009
X2.8289Y-2.8166
X3.2472Y-2.9287
X4.0094Y-3.887
X4.4277Y-3.9991
X7.3833Y-3.9991
X7.8016Y-3.887
X9.1293Y-5.0393
X9.5476Y-4.9272
X9.4776Y-3.6009
X9.8959Y-3.4889
T7
X7.6295Y-4.842
X7.8411Y-4.8709
X9.7238Y-4.4439
X9.9354Y-4.4728
X1.8954Y-3.6385
X2.0642Y-3.7693
X2.8092Y-2.9662
X2.9779Y-3.097
X3.9897Y-4.0366
X4.1585Y-4.1674
X7.441Y-4.1385
X7.6526Y-4.1674
X9.1871Y-5.1787
X9.3986Y-5.2076
X9.5353Y-3.7404
X9.7469Y-3.7693
X3.1575Y-4.4046
X3.3262Y-4.5354
X9.9123Y-5.1474
X10.1239Y-5.1763
X3.5345Y-2.9975
X3.7032Y-3.1283
X6.9858Y-5.1775
X7.1973Y-5.2065
X8.9986Y-4.4752
X9.2101Y-4.5041
X4.1782Y-3.3331
X4.347Y-3.4639
X5.0887Y-5.4112
X5.2575Y-5.542
X2.2437Y-5.0768
X2.4124Y-5.2076
X9.3468Y-3.0368
X9.5583Y-3.0657
X3.346Y-3.7011
X3.5147Y-3.8319
X6.6087Y-3.7705
X6.8203Y-3.7994
X6.7973Y-4.474
X7.0088Y-4.5029
X7.2525Y-3.435
X7.464Y-3.4639
X2.9689Y-5.1081
X3.1377Y-5.2389
X8.81Y-3.7717
X9.0216Y-3.8006
X7.8963Y-3.0994
X8.1078Y-3.1283
X2.4322Y-4.3733
X2.6009Y-4.5041
X7.1743Y-5.8811
X7.3858Y-5.91
X4.445Y-5.0757
X4.6137Y-5.2065
X4.822Y-3.6686
X4.9907Y-3.7994
X8.2733Y-4.5065
X8.4848Y-4.5354
X2.0839Y-2.9349
X2.2527Y-3.0657
X1.5184Y-5.0455
X1.6871Y-5.1763
X8.4618Y-5.21
X8.6733Y-5.2389
X8.6215Y-3.0681
X8.8331Y-3.097
X2.6207Y-3.6698
X2.7894Y-3.8006
X4.2565Y-5.7792
X4.4252Y-5.91
X4.6335Y-4.3721
X4.8022Y-4.5029
X8.0848Y-3.803
X8.2963Y-3.8319
X1.7069Y-4.342
X1.8757Y-4.4728
X3.8012Y-4.7401
X3.97Y-4.8709
X3.6127Y-5.4437
X3.7814Y-5.5745
X6.342Y-5.5131
X6.5536Y-5.542
X7.818Y-5.5455
X8.0296Y-5.5745
T8
X3.3863Y-4.311
X10.0638Y-4.952
X3.7633Y-2.904
X7.1372Y-4.9821
X9.15Y-4.2797
X4.4071Y-3.2395
X5.3176Y-5.3176
X2.4725Y-4.9833
X9.4982Y-2.8414
X3.5748Y-3.6075
X6.7602Y-3.575
X6.9487Y-4.2786
X7.4039Y-3.2395
X3.1978Y-5.0146
X8.9615Y-3.5762
X8.0477Y-2.904
X2.661Y-4.2797
X7.3257Y-5.6856
X4.6738Y-4.9821
X5.0509Y-3.575
X8.4247Y-4.311
X2.3128Y-2.8414
X1.7473Y-4.952
X8.6132Y-5.0146
X8.773Y-2.8727
X2.8496Y-3.5762
X4.4853Y-5.6856
X4.8623Y-4.2786
X8.2362Y-3.6075
X1.9358Y-4.2484
X4.0301Y-4.6466
X3.8416Y-5.3501
X6.4934Y-5.3176
X7.9695Y-5.3501
X7.7809Y-4.6466
X9.8752Y-4.2484
X2.1243Y-3.5449
X3.0381Y-2.8727
X4.2186Y-3.943
X7.5924Y-3.943
X9.3385Y-4.9833
X9.6867Y-3.5449
T0
M30
