%TF.GenerationSoftware,KiCad,Pcbnew,(5.1.6-0-10_14)*%
%TF.CreationDate,2020-10-18T17:15:40+02:00*%
%TF.ProjectId,batreus,62617472-6575-4732-9e6b-696361645f70,rev?*%
%TF.SameCoordinates,Original*%
%TF.FileFunction,Soldermask,Bot*%
%TF.FilePolarity,Negative*%
%FSLAX46Y46*%
G04 Gerber Fmt 4.6, Leading zero omitted, Abs format (unit mm)*
G04 Created by KiCad (PCBNEW (5.1.6-0-10_14)) date 2020-10-18 17:15:40*
%MOMM*%
%LPD*%
G01*
G04 APERTURE LIST*
%ADD10C,3.600000*%
%ADD11C,3.100000*%
%ADD12C,1.900000*%
%ADD13C,3.300000*%
%ADD14C,2.100000*%
G04 APERTURE END LIST*
D10*
%TO.C,REF\u002A\u002A*%
X66000000Y-79800000D03*
%TD*%
%TO.C,REF\u002A\u002A*%
X56400000Y-115500000D03*
%TD*%
%TO.C,REF\u002A\u002A*%
X107600000Y-133400000D03*
%TD*%
%TO.C,REF\u002A\u002A*%
X117100000Y-97600000D03*
%TD*%
%TO.C,REF\u002A\u002A*%
X191400000Y-129500000D03*
%TD*%
%TO.C,REF\u002A\u002A*%
X181800000Y-93800000D03*
%TD*%
%TO.C,REF\u002A\u002A*%
X244600000Y-119400000D03*
%TD*%
%TO.C,REF\u002A\u002A*%
X235000000Y-83700000D03*
%TD*%
%TO.C,S3*%
G36*
G01*
X101080967Y-83980686D02*
X101417432Y-82724983D01*
G75*
G02*
X102213516Y-82265363I627852J-168232D01*
G01*
X103469219Y-82601828D01*
G75*
G02*
X103928839Y-83397912I-168232J-627852D01*
G01*
X103592374Y-84653615D01*
G75*
G02*
X102796290Y-85113235I-627852J168232D01*
G01*
X101540587Y-84776770D01*
G75*
G02*
X101080967Y-83980686I168232J627852D01*
G01*
G37*
G36*
G01*
X112611519Y-89244369D02*
X112947984Y-87988666D01*
G75*
G02*
X113744068Y-87529046I627852J-168232D01*
G01*
X114999771Y-87865511D01*
G75*
G02*
X115459391Y-88661595I-168232J-627852D01*
G01*
X115122926Y-89917298D01*
G75*
G02*
X114326842Y-90376918I-627852J168232D01*
G01*
X113071139Y-90040453D01*
G75*
G02*
X112611519Y-89244369I168232J627852D01*
G01*
G37*
D11*
X106127124Y-84659871D03*
X110413234Y-87982410D03*
D12*
X117252858Y-83706953D03*
X106627674Y-80859943D03*
D13*
X111940266Y-82283448D03*
%TD*%
D14*
%TO.C,N1*%
X157620000Y-115240000D03*
X157620000Y-112700000D03*
X157620000Y-110160000D03*
X157620000Y-107620000D03*
X157620000Y-105080000D03*
X157620000Y-102540000D03*
X157620000Y-100000000D03*
X157620000Y-97460000D03*
X157620000Y-94920000D03*
X157620000Y-92380000D03*
X157620000Y-89840000D03*
X157620000Y-87300000D03*
X157620000Y-84760000D03*
X142380000Y-115240000D03*
X142380000Y-112700000D03*
X142380000Y-110160000D03*
X142380000Y-107620000D03*
X142380000Y-105080000D03*
X142380000Y-102540000D03*
X142380000Y-100000000D03*
X142380000Y-97460000D03*
X142380000Y-94920000D03*
X142380000Y-92380000D03*
X142380000Y-89840000D03*
X142380000Y-87300000D03*
X142380000Y-84760000D03*
%TD*%
%TO.C,S5*%
G36*
G01*
X163152536Y-97705396D02*
X162816071Y-96449692D01*
G75*
G02*
X163275691Y-95653608I627852J168232D01*
G01*
X164531394Y-95317143D01*
G75*
G02*
X165327478Y-95776763I168232J-627852D01*
G01*
X165663943Y-97032466D01*
G75*
G02*
X165204323Y-97828550I-627852J-168232D01*
G01*
X163948620Y-98165015D01*
G75*
G02*
X163152536Y-97705395I-168232J627852D01*
G01*
G37*
G36*
G01*
X175770129Y-96498602D02*
X175433664Y-95242898D01*
G75*
G02*
X175893284Y-94446814I627852J168232D01*
G01*
X177148987Y-94110349D01*
G75*
G02*
X177945071Y-94569969I168232J-627852D01*
G01*
X178281536Y-95825672D01*
G75*
G02*
X177821916Y-96621756I-627852J-168232D01*
G01*
X176566213Y-96958221D01*
G75*
G02*
X175770129Y-96498601I-168232J627852D01*
G01*
G37*
D11*
X167862229Y-95770507D03*
X173235378Y-96504856D03*
D12*
X177020938Y-89382389D03*
X166395754Y-92229399D03*
D13*
X171708346Y-90805894D03*
%TD*%
%TO.C,S4*%
G36*
G01*
X117432355Y-92503132D02*
X117768820Y-91247429D01*
G75*
G02*
X118564904Y-90787809I627852J-168232D01*
G01*
X119820607Y-91124274D01*
G75*
G02*
X120280227Y-91920358I-168232J-627852D01*
G01*
X119943762Y-93176061D01*
G75*
G02*
X119147678Y-93635681I-627852J168232D01*
G01*
X117891975Y-93299216D01*
G75*
G02*
X117432355Y-92503132I168232J627852D01*
G01*
G37*
G36*
G01*
X128962907Y-97766815D02*
X129299372Y-96511112D01*
G75*
G02*
X130095456Y-96051492I627852J-168232D01*
G01*
X131351159Y-96387957D01*
G75*
G02*
X131810779Y-97184041I-168232J-627852D01*
G01*
X131474314Y-98439744D01*
G75*
G02*
X130678230Y-98899364I-627852J168232D01*
G01*
X129422527Y-98562899D01*
G75*
G02*
X128962907Y-97766815I168232J627852D01*
G01*
G37*
D11*
X122478512Y-93182317D03*
X126764622Y-96504856D03*
D12*
X133604246Y-92229399D03*
X122979062Y-89382389D03*
D13*
X128291654Y-90805894D03*
%TD*%
%TO.C,S41*%
G36*
G01*
X156377452Y-141967098D02*
X156040987Y-140711394D01*
G75*
G02*
X156500607Y-139915310I627852J168232D01*
G01*
X157756310Y-139578845D01*
G75*
G02*
X158552394Y-140038465I168232J-627852D01*
G01*
X158888859Y-141294168D01*
G75*
G02*
X158429239Y-142090252I-627852J-168232D01*
G01*
X157173536Y-142426717D01*
G75*
G02*
X156377452Y-141967097I-168232J627852D01*
G01*
G37*
G36*
G01*
X168995045Y-140760304D02*
X168658580Y-139504600D01*
G75*
G02*
X169118200Y-138708516I627852J168232D01*
G01*
X170373903Y-138372051D01*
G75*
G02*
X171169987Y-138831671I168232J-627852D01*
G01*
X171506452Y-140087374D01*
G75*
G02*
X171046832Y-140883458I-627852J-168232D01*
G01*
X169791129Y-141219923D01*
G75*
G02*
X168995045Y-140760303I-168232J627852D01*
G01*
G37*
D11*
X161087145Y-140032209D03*
X166460294Y-140766558D03*
D12*
X170245854Y-133644091D03*
X159620670Y-136491101D03*
D13*
X164933262Y-135067596D03*
%TD*%
%TO.C,S40*%
G36*
G01*
X124207439Y-136764834D02*
X124543904Y-135509131D01*
G75*
G02*
X125339988Y-135049511I627852J-168232D01*
G01*
X126595691Y-135385976D01*
G75*
G02*
X127055311Y-136182060I-168232J-627852D01*
G01*
X126718846Y-137437763D01*
G75*
G02*
X125922762Y-137897383I-627852J168232D01*
G01*
X124667059Y-137560918D01*
G75*
G02*
X124207439Y-136764834I168232J627852D01*
G01*
G37*
G36*
G01*
X135737991Y-142028517D02*
X136074456Y-140772814D01*
G75*
G02*
X136870540Y-140313194I627852J-168232D01*
G01*
X138126243Y-140649659D01*
G75*
G02*
X138585863Y-141445743I-168232J-627852D01*
G01*
X138249398Y-142701446D01*
G75*
G02*
X137453314Y-143161066I-627852J168232D01*
G01*
X136197611Y-142824601D01*
G75*
G02*
X135737991Y-142028517I168232J627852D01*
G01*
G37*
D11*
X129253596Y-137444019D03*
X133539706Y-140766558D03*
D12*
X140379330Y-136491101D03*
X129754146Y-133644091D03*
D13*
X135066738Y-135067596D03*
%TD*%
%TO.C,S39*%
G36*
G01*
X247063652Y-132679308D02*
X246727187Y-131423604D01*
G75*
G02*
X247186807Y-130627520I627852J168232D01*
G01*
X248442510Y-130291055D01*
G75*
G02*
X249238594Y-130750675I168232J-627852D01*
G01*
X249575059Y-132006378D01*
G75*
G02*
X249115439Y-132802462I-627852J-168232D01*
G01*
X247859736Y-133138927D01*
G75*
G02*
X247063652Y-132679307I-168232J627852D01*
G01*
G37*
G36*
G01*
X259681245Y-131472514D02*
X259344780Y-130216810D01*
G75*
G02*
X259804400Y-129420726I627852J168232D01*
G01*
X261060103Y-129084261D01*
G75*
G02*
X261856187Y-129543881I168232J-627852D01*
G01*
X262192652Y-130799584D01*
G75*
G02*
X261733032Y-131595668I-627852J-168232D01*
G01*
X260477329Y-131932133D01*
G75*
G02*
X259681245Y-131472513I-168232J627852D01*
G01*
G37*
D11*
X251773345Y-130744419D03*
X257146494Y-131478768D03*
D12*
X260932054Y-124356301D03*
X250306870Y-127203311D03*
D13*
X255619462Y-125779806D03*
%TD*%
%TO.C,S38*%
G36*
G01*
X228641711Y-133474348D02*
X228305246Y-132218644D01*
G75*
G02*
X228764866Y-131422560I627852J168232D01*
G01*
X230020569Y-131086095D01*
G75*
G02*
X230816653Y-131545715I168232J-627852D01*
G01*
X231153118Y-132801418D01*
G75*
G02*
X230693498Y-133597502I-627852J-168232D01*
G01*
X229437795Y-133933967D01*
G75*
G02*
X228641711Y-133474347I-168232J627852D01*
G01*
G37*
G36*
G01*
X241259304Y-132267554D02*
X240922839Y-131011850D01*
G75*
G02*
X241382459Y-130215766I627852J168232D01*
G01*
X242638162Y-129879301D01*
G75*
G02*
X243434246Y-130338921I168232J-627852D01*
G01*
X243770711Y-131594624D01*
G75*
G02*
X243311091Y-132390708I-627852J-168232D01*
G01*
X242055388Y-132727173D01*
G75*
G02*
X241259304Y-132267553I-168232J627852D01*
G01*
G37*
D11*
X233351404Y-131539459D03*
X238724553Y-132273808D03*
D12*
X242510113Y-125151341D03*
X231884929Y-127998351D03*
D13*
X237197521Y-126574846D03*
%TD*%
%TO.C,S37*%
G36*
G01*
X210219770Y-134269388D02*
X209883305Y-133013684D01*
G75*
G02*
X210342925Y-132217600I627852J168232D01*
G01*
X211598628Y-131881135D01*
G75*
G02*
X212394712Y-132340755I168232J-627852D01*
G01*
X212731177Y-133596458D01*
G75*
G02*
X212271557Y-134392542I-627852J-168232D01*
G01*
X211015854Y-134729007D01*
G75*
G02*
X210219770Y-134269387I-168232J627852D01*
G01*
G37*
G36*
G01*
X222837363Y-133062594D02*
X222500898Y-131806890D01*
G75*
G02*
X222960518Y-131010806I627852J168232D01*
G01*
X224216221Y-130674341D01*
G75*
G02*
X225012305Y-131133961I168232J-627852D01*
G01*
X225348770Y-132389664D01*
G75*
G02*
X224889150Y-133185748I-627852J-168232D01*
G01*
X223633447Y-133522213D01*
G75*
G02*
X222837363Y-133062593I-168232J627852D01*
G01*
G37*
D11*
X214929463Y-132334499D03*
X220302612Y-133068848D03*
D12*
X224088172Y-125946381D03*
X213462988Y-128793391D03*
D13*
X218775580Y-127369886D03*
%TD*%
%TO.C,S36*%
G36*
G01*
X193868381Y-142791834D02*
X193531916Y-141536130D01*
G75*
G02*
X193991536Y-140740046I627852J168232D01*
G01*
X195247239Y-140403581D01*
G75*
G02*
X196043323Y-140863201I168232J-627852D01*
G01*
X196379788Y-142118904D01*
G75*
G02*
X195920168Y-142914988I-627852J-168232D01*
G01*
X194664465Y-143251453D01*
G75*
G02*
X193868381Y-142791833I-168232J627852D01*
G01*
G37*
G36*
G01*
X206485974Y-141585040D02*
X206149509Y-140329336D01*
G75*
G02*
X206609129Y-139533252I627852J168232D01*
G01*
X207864832Y-139196787D01*
G75*
G02*
X208660916Y-139656407I168232J-627852D01*
G01*
X208997381Y-140912110D01*
G75*
G02*
X208537761Y-141708194I-627852J-168232D01*
G01*
X207282058Y-142044659D01*
G75*
G02*
X206485974Y-141585039I-168232J627852D01*
G01*
G37*
D11*
X198578074Y-140856945D03*
X203951223Y-141591294D03*
D12*
X207736783Y-134468827D03*
X197111599Y-137315837D03*
D13*
X202424191Y-135892332D03*
%TD*%
%TO.C,S35*%
G36*
G01*
X177516993Y-151314280D02*
X177180528Y-150058576D01*
G75*
G02*
X177640148Y-149262492I627852J168232D01*
G01*
X178895851Y-148926027D01*
G75*
G02*
X179691935Y-149385647I168232J-627852D01*
G01*
X180028400Y-150641350D01*
G75*
G02*
X179568780Y-151437434I-627852J-168232D01*
G01*
X178313077Y-151773899D01*
G75*
G02*
X177516993Y-151314279I-168232J627852D01*
G01*
G37*
G36*
G01*
X190134586Y-150107486D02*
X189798121Y-148851782D01*
G75*
G02*
X190257741Y-148055698I627852J168232D01*
G01*
X191513444Y-147719233D01*
G75*
G02*
X192309528Y-148178853I168232J-627852D01*
G01*
X192645993Y-149434556D01*
G75*
G02*
X192186373Y-150230640I-627852J-168232D01*
G01*
X190930670Y-150567105D01*
G75*
G02*
X190134586Y-150107485I-168232J627852D01*
G01*
G37*
D11*
X182226686Y-149379391D03*
X187599835Y-150113740D03*
D12*
X191385395Y-142991273D03*
X180760211Y-145838283D03*
D13*
X186072803Y-144414778D03*
%TD*%
%TO.C,S34*%
G36*
G01*
X103067898Y-146112016D02*
X103404363Y-144856313D01*
G75*
G02*
X104200447Y-144396693I627852J-168232D01*
G01*
X105456150Y-144733158D01*
G75*
G02*
X105915770Y-145529242I-168232J-627852D01*
G01*
X105579305Y-146784945D01*
G75*
G02*
X104783221Y-147244565I-627852J168232D01*
G01*
X103527518Y-146908100D01*
G75*
G02*
X103067898Y-146112016I168232J627852D01*
G01*
G37*
G36*
G01*
X114598450Y-151375699D02*
X114934915Y-150119996D01*
G75*
G02*
X115730999Y-149660376I627852J-168232D01*
G01*
X116986702Y-149996841D01*
G75*
G02*
X117446322Y-150792925I-168232J-627852D01*
G01*
X117109857Y-152048628D01*
G75*
G02*
X116313773Y-152508248I-627852J168232D01*
G01*
X115058070Y-152171783D01*
G75*
G02*
X114598450Y-151375699I168232J627852D01*
G01*
G37*
D11*
X108114055Y-146791201D03*
X112400165Y-150113740D03*
D12*
X119239789Y-145838283D03*
X108614605Y-142991273D03*
D13*
X113927197Y-144414778D03*
%TD*%
%TO.C,S33*%
G36*
G01*
X86716510Y-137589570D02*
X87052975Y-136333867D01*
G75*
G02*
X87849059Y-135874247I627852J-168232D01*
G01*
X89104762Y-136210712D01*
G75*
G02*
X89564382Y-137006796I-168232J-627852D01*
G01*
X89227917Y-138262499D01*
G75*
G02*
X88431833Y-138722119I-627852J168232D01*
G01*
X87176130Y-138385654D01*
G75*
G02*
X86716510Y-137589570I168232J627852D01*
G01*
G37*
G36*
G01*
X98247062Y-142853253D02*
X98583527Y-141597550D01*
G75*
G02*
X99379611Y-141137930I627852J-168232D01*
G01*
X100635314Y-141474395D01*
G75*
G02*
X101094934Y-142270479I-168232J-627852D01*
G01*
X100758469Y-143526182D01*
G75*
G02*
X99962385Y-143985802I-627852J168232D01*
G01*
X98706682Y-143649337D01*
G75*
G02*
X98247062Y-142853253I168232J627852D01*
G01*
G37*
D11*
X91762667Y-138268755D03*
X96048777Y-141591294D03*
D12*
X102888401Y-137315837D03*
X92263217Y-134468827D03*
D13*
X97575809Y-135892332D03*
%TD*%
%TO.C,S32*%
G36*
G01*
X70365121Y-129067124D02*
X70701586Y-127811421D01*
G75*
G02*
X71497670Y-127351801I627852J-168232D01*
G01*
X72753373Y-127688266D01*
G75*
G02*
X73212993Y-128484350I-168232J-627852D01*
G01*
X72876528Y-129740053D01*
G75*
G02*
X72080444Y-130199673I-627852J168232D01*
G01*
X70824741Y-129863208D01*
G75*
G02*
X70365121Y-129067124I168232J627852D01*
G01*
G37*
G36*
G01*
X81895673Y-134330807D02*
X82232138Y-133075104D01*
G75*
G02*
X83028222Y-132615484I627852J-168232D01*
G01*
X84283925Y-132951949D01*
G75*
G02*
X84743545Y-133748033I-168232J-627852D01*
G01*
X84407080Y-135003736D01*
G75*
G02*
X83610996Y-135463356I-627852J168232D01*
G01*
X82355293Y-135126891D01*
G75*
G02*
X81895673Y-134330807I168232J627852D01*
G01*
G37*
D11*
X75411278Y-129746309D03*
X79697388Y-133068848D03*
D12*
X86537012Y-128793391D03*
X75911828Y-125946381D03*
D13*
X81224420Y-127369886D03*
%TD*%
%TO.C,S31*%
G36*
G01*
X51943180Y-128272084D02*
X52279645Y-127016381D01*
G75*
G02*
X53075729Y-126556761I627852J-168232D01*
G01*
X54331432Y-126893226D01*
G75*
G02*
X54791052Y-127689310I-168232J-627852D01*
G01*
X54454587Y-128945013D01*
G75*
G02*
X53658503Y-129404633I-627852J168232D01*
G01*
X52402800Y-129068168D01*
G75*
G02*
X51943180Y-128272084I168232J627852D01*
G01*
G37*
G36*
G01*
X63473732Y-133535767D02*
X63810197Y-132280064D01*
G75*
G02*
X64606281Y-131820444I627852J-168232D01*
G01*
X65861984Y-132156909D01*
G75*
G02*
X66321604Y-132952993I-168232J-627852D01*
G01*
X65985139Y-134208696D01*
G75*
G02*
X65189055Y-134668316I-627852J168232D01*
G01*
X63933352Y-134331851D01*
G75*
G02*
X63473732Y-133535767I168232J627852D01*
G01*
G37*
D11*
X56989337Y-128951269D03*
X61275447Y-132273808D03*
D12*
X68115071Y-127998351D03*
X57489887Y-125151341D03*
D13*
X62802479Y-126574846D03*
%TD*%
%TO.C,S30*%
G36*
G01*
X33521239Y-127477044D02*
X33857704Y-126221341D01*
G75*
G02*
X34653788Y-125761721I627852J-168232D01*
G01*
X35909491Y-126098186D01*
G75*
G02*
X36369111Y-126894270I-168232J-627852D01*
G01*
X36032646Y-128149973D01*
G75*
G02*
X35236562Y-128609593I-627852J168232D01*
G01*
X33980859Y-128273128D01*
G75*
G02*
X33521239Y-127477044I168232J627852D01*
G01*
G37*
G36*
G01*
X45051791Y-132740727D02*
X45388256Y-131485024D01*
G75*
G02*
X46184340Y-131025404I627852J-168232D01*
G01*
X47440043Y-131361869D01*
G75*
G02*
X47899663Y-132157953I-168232J-627852D01*
G01*
X47563198Y-133413656D01*
G75*
G02*
X46767114Y-133873276I-627852J168232D01*
G01*
X45511411Y-133536811D01*
G75*
G02*
X45051791Y-132740727I168232J627852D01*
G01*
G37*
D11*
X38567396Y-128156229D03*
X42853506Y-131478768D03*
D12*
X49693130Y-127203311D03*
X39067946Y-124356301D03*
D13*
X44380538Y-125779806D03*
%TD*%
%TO.C,S29*%
G36*
G01*
X242275500Y-114809681D02*
X241939035Y-113553977D01*
G75*
G02*
X242398655Y-112757893I627852J168232D01*
G01*
X243654358Y-112421428D01*
G75*
G02*
X244450442Y-112881048I168232J-627852D01*
G01*
X244786907Y-114136751D01*
G75*
G02*
X244327287Y-114932835I-627852J-168232D01*
G01*
X243071584Y-115269300D01*
G75*
G02*
X242275500Y-114809680I-168232J627852D01*
G01*
G37*
G36*
G01*
X254893093Y-113602887D02*
X254556628Y-112347183D01*
G75*
G02*
X255016248Y-111551099I627852J168232D01*
G01*
X256271951Y-111214634D01*
G75*
G02*
X257068035Y-111674254I168232J-627852D01*
G01*
X257404500Y-112929957D01*
G75*
G02*
X256944880Y-113726041I-627852J-168232D01*
G01*
X255689177Y-114062506D01*
G75*
G02*
X254893093Y-113602886I-168232J627852D01*
G01*
G37*
D11*
X246985193Y-112874792D03*
X252358342Y-113609141D03*
D12*
X256143902Y-106486674D03*
X245518718Y-109333684D03*
D13*
X250831310Y-107910179D03*
%TD*%
%TO.C,S28*%
G36*
G01*
X223853559Y-115604720D02*
X223517094Y-114349016D01*
G75*
G02*
X223976714Y-113552932I627852J168232D01*
G01*
X225232417Y-113216467D01*
G75*
G02*
X226028501Y-113676087I168232J-627852D01*
G01*
X226364966Y-114931790D01*
G75*
G02*
X225905346Y-115727874I-627852J-168232D01*
G01*
X224649643Y-116064339D01*
G75*
G02*
X223853559Y-115604719I-168232J627852D01*
G01*
G37*
G36*
G01*
X236471152Y-114397926D02*
X236134687Y-113142222D01*
G75*
G02*
X236594307Y-112346138I627852J168232D01*
G01*
X237850010Y-112009673D01*
G75*
G02*
X238646094Y-112469293I168232J-627852D01*
G01*
X238982559Y-113724996D01*
G75*
G02*
X238522939Y-114521080I-627852J-168232D01*
G01*
X237267236Y-114857545D01*
G75*
G02*
X236471152Y-114397925I-168232J627852D01*
G01*
G37*
D11*
X228563252Y-113669831D03*
X233936401Y-114404180D03*
D12*
X237721961Y-107281713D03*
X227096777Y-110128723D03*
D13*
X232409369Y-108705218D03*
%TD*%
%TO.C,S27*%
G36*
G01*
X205431618Y-116399760D02*
X205095153Y-115144056D01*
G75*
G02*
X205554773Y-114347972I627852J168232D01*
G01*
X206810476Y-114011507D01*
G75*
G02*
X207606560Y-114471127I168232J-627852D01*
G01*
X207943025Y-115726830D01*
G75*
G02*
X207483405Y-116522914I-627852J-168232D01*
G01*
X206227702Y-116859379D01*
G75*
G02*
X205431618Y-116399759I-168232J627852D01*
G01*
G37*
G36*
G01*
X218049211Y-115192966D02*
X217712746Y-113937262D01*
G75*
G02*
X218172366Y-113141178I627852J168232D01*
G01*
X219428069Y-112804713D01*
G75*
G02*
X220224153Y-113264333I168232J-627852D01*
G01*
X220560618Y-114520036D01*
G75*
G02*
X220100998Y-115316120I-627852J-168232D01*
G01*
X218845295Y-115652585D01*
G75*
G02*
X218049211Y-115192965I-168232J627852D01*
G01*
G37*
D11*
X210141311Y-114464871D03*
X215514460Y-115199220D03*
D12*
X219300020Y-108076753D03*
X208674836Y-110923763D03*
D13*
X213987428Y-109500258D03*
%TD*%
%TO.C,S26*%
G36*
G01*
X189080229Y-124922206D02*
X188743764Y-123666502D01*
G75*
G02*
X189203384Y-122870418I627852J168232D01*
G01*
X190459087Y-122533953D01*
G75*
G02*
X191255171Y-122993573I168232J-627852D01*
G01*
X191591636Y-124249276D01*
G75*
G02*
X191132016Y-125045360I-627852J-168232D01*
G01*
X189876313Y-125381825D01*
G75*
G02*
X189080229Y-124922205I-168232J627852D01*
G01*
G37*
G36*
G01*
X201697822Y-123715412D02*
X201361357Y-122459708D01*
G75*
G02*
X201820977Y-121663624I627852J168232D01*
G01*
X203076680Y-121327159D01*
G75*
G02*
X203872764Y-121786779I168232J-627852D01*
G01*
X204209229Y-123042482D01*
G75*
G02*
X203749609Y-123838566I-627852J-168232D01*
G01*
X202493906Y-124175031D01*
G75*
G02*
X201697822Y-123715411I-168232J627852D01*
G01*
G37*
D11*
X193789922Y-122987317D03*
X199163071Y-123721666D03*
D12*
X202948631Y-116599199D03*
X192323447Y-119446209D03*
D13*
X197636039Y-118022704D03*
%TD*%
%TO.C,S25*%
G36*
G01*
X172728840Y-133444652D02*
X172392375Y-132188948D01*
G75*
G02*
X172851995Y-131392864I627852J168232D01*
G01*
X174107698Y-131056399D01*
G75*
G02*
X174903782Y-131516019I168232J-627852D01*
G01*
X175240247Y-132771722D01*
G75*
G02*
X174780627Y-133567806I-627852J-168232D01*
G01*
X173524924Y-133904271D01*
G75*
G02*
X172728840Y-133444651I-168232J627852D01*
G01*
G37*
G36*
G01*
X185346433Y-132237858D02*
X185009968Y-130982154D01*
G75*
G02*
X185469588Y-130186070I627852J168232D01*
G01*
X186725291Y-129849605D01*
G75*
G02*
X187521375Y-130309225I168232J-627852D01*
G01*
X187857840Y-131564928D01*
G75*
G02*
X187398220Y-132361012I-627852J-168232D01*
G01*
X186142517Y-132697477D01*
G75*
G02*
X185346433Y-132237857I-168232J627852D01*
G01*
G37*
D11*
X177438533Y-131509763D03*
X182811682Y-132244112D03*
D12*
X186597242Y-125121645D03*
X175972058Y-127968655D03*
D13*
X181284650Y-126545150D03*
%TD*%
%TO.C,S24*%
G36*
G01*
X107856051Y-128242388D02*
X108192516Y-126986685D01*
G75*
G02*
X108988600Y-126527065I627852J-168232D01*
G01*
X110244303Y-126863530D01*
G75*
G02*
X110703923Y-127659614I-168232J-627852D01*
G01*
X110367458Y-128915317D01*
G75*
G02*
X109571374Y-129374937I-627852J168232D01*
G01*
X108315671Y-129038472D01*
G75*
G02*
X107856051Y-128242388I168232J627852D01*
G01*
G37*
G36*
G01*
X119386603Y-133506071D02*
X119723068Y-132250368D01*
G75*
G02*
X120519152Y-131790748I627852J-168232D01*
G01*
X121774855Y-132127213D01*
G75*
G02*
X122234475Y-132923297I-168232J-627852D01*
G01*
X121898010Y-134179000D01*
G75*
G02*
X121101926Y-134638620I-627852J168232D01*
G01*
X119846223Y-134302155D01*
G75*
G02*
X119386603Y-133506071I168232J627852D01*
G01*
G37*
D11*
X112902208Y-128921573D03*
X117188318Y-132244112D03*
D12*
X124027942Y-127968655D03*
X113402758Y-125121645D03*
D13*
X118715350Y-126545150D03*
%TD*%
%TO.C,S23*%
G36*
G01*
X91504662Y-119719942D02*
X91841127Y-118464239D01*
G75*
G02*
X92637211Y-118004619I627852J-168232D01*
G01*
X93892914Y-118341084D01*
G75*
G02*
X94352534Y-119137168I-168232J-627852D01*
G01*
X94016069Y-120392871D01*
G75*
G02*
X93219985Y-120852491I-627852J168232D01*
G01*
X91964282Y-120516026D01*
G75*
G02*
X91504662Y-119719942I168232J627852D01*
G01*
G37*
G36*
G01*
X103035214Y-124983625D02*
X103371679Y-123727922D01*
G75*
G02*
X104167763Y-123268302I627852J-168232D01*
G01*
X105423466Y-123604767D01*
G75*
G02*
X105883086Y-124400851I-168232J-627852D01*
G01*
X105546621Y-125656554D01*
G75*
G02*
X104750537Y-126116174I-627852J168232D01*
G01*
X103494834Y-125779709D01*
G75*
G02*
X103035214Y-124983625I168232J627852D01*
G01*
G37*
D11*
X96550819Y-120399127D03*
X100836929Y-123721666D03*
D12*
X107676553Y-119446209D03*
X97051369Y-116599199D03*
D13*
X102363961Y-118022704D03*
%TD*%
%TO.C,S22*%
G36*
G01*
X75153273Y-111197496D02*
X75489738Y-109941793D01*
G75*
G02*
X76285822Y-109482173I627852J-168232D01*
G01*
X77541525Y-109818638D01*
G75*
G02*
X78001145Y-110614722I-168232J-627852D01*
G01*
X77664680Y-111870425D01*
G75*
G02*
X76868596Y-112330045I-627852J168232D01*
G01*
X75612893Y-111993580D01*
G75*
G02*
X75153273Y-111197496I168232J627852D01*
G01*
G37*
G36*
G01*
X86683825Y-116461179D02*
X87020290Y-115205476D01*
G75*
G02*
X87816374Y-114745856I627852J-168232D01*
G01*
X89072077Y-115082321D01*
G75*
G02*
X89531697Y-115878405I-168232J-627852D01*
G01*
X89195232Y-117134108D01*
G75*
G02*
X88399148Y-117593728I-627852J168232D01*
G01*
X87143445Y-117257263D01*
G75*
G02*
X86683825Y-116461179I168232J627852D01*
G01*
G37*
D11*
X80199430Y-111876681D03*
X84485540Y-115199220D03*
D12*
X91325164Y-110923763D03*
X80699980Y-108076753D03*
D13*
X86012572Y-109500258D03*
%TD*%
%TO.C,S21*%
G36*
G01*
X56731332Y-110402456D02*
X57067797Y-109146753D01*
G75*
G02*
X57863881Y-108687133I627852J-168232D01*
G01*
X59119584Y-109023598D01*
G75*
G02*
X59579204Y-109819682I-168232J-627852D01*
G01*
X59242739Y-111075385D01*
G75*
G02*
X58446655Y-111535005I-627852J168232D01*
G01*
X57190952Y-111198540D01*
G75*
G02*
X56731332Y-110402456I168232J627852D01*
G01*
G37*
G36*
G01*
X68261884Y-115666139D02*
X68598349Y-114410436D01*
G75*
G02*
X69394433Y-113950816I627852J-168232D01*
G01*
X70650136Y-114287281D01*
G75*
G02*
X71109756Y-115083365I-168232J-627852D01*
G01*
X70773291Y-116339068D01*
G75*
G02*
X69977207Y-116798688I-627852J168232D01*
G01*
X68721504Y-116462223D01*
G75*
G02*
X68261884Y-115666139I168232J627852D01*
G01*
G37*
D11*
X61777489Y-111081641D03*
X66063599Y-114404180D03*
D12*
X72903223Y-110128723D03*
X62278039Y-107281713D03*
D13*
X67590631Y-108705218D03*
%TD*%
%TO.C,S20*%
G36*
G01*
X38309391Y-109607417D02*
X38645856Y-108351714D01*
G75*
G02*
X39441940Y-107892094I627852J-168232D01*
G01*
X40697643Y-108228559D01*
G75*
G02*
X41157263Y-109024643I-168232J-627852D01*
G01*
X40820798Y-110280346D01*
G75*
G02*
X40024714Y-110739966I-627852J168232D01*
G01*
X38769011Y-110403501D01*
G75*
G02*
X38309391Y-109607417I168232J627852D01*
G01*
G37*
G36*
G01*
X49839943Y-114871100D02*
X50176408Y-113615397D01*
G75*
G02*
X50972492Y-113155777I627852J-168232D01*
G01*
X52228195Y-113492242D01*
G75*
G02*
X52687815Y-114288326I-168232J-627852D01*
G01*
X52351350Y-115544029D01*
G75*
G02*
X51555266Y-116003649I-627852J168232D01*
G01*
X50299563Y-115667184D01*
G75*
G02*
X49839943Y-114871100I168232J627852D01*
G01*
G37*
D11*
X43355548Y-110286602D03*
X47641658Y-113609141D03*
D12*
X54481282Y-109333684D03*
X43856098Y-106486674D03*
D13*
X49168690Y-107910179D03*
%TD*%
%TO.C,S19*%
G36*
G01*
X237487347Y-96940053D02*
X237150882Y-95684349D01*
G75*
G02*
X237610502Y-94888265I627852J168232D01*
G01*
X238866205Y-94551800D01*
G75*
G02*
X239662289Y-95011420I168232J-627852D01*
G01*
X239998754Y-96267123D01*
G75*
G02*
X239539134Y-97063207I-627852J-168232D01*
G01*
X238283431Y-97399672D01*
G75*
G02*
X237487347Y-96940052I-168232J627852D01*
G01*
G37*
G36*
G01*
X250104940Y-95733259D02*
X249768475Y-94477555D01*
G75*
G02*
X250228095Y-93681471I627852J168232D01*
G01*
X251483798Y-93345006D01*
G75*
G02*
X252279882Y-93804626I168232J-627852D01*
G01*
X252616347Y-95060329D01*
G75*
G02*
X252156727Y-95856413I-627852J-168232D01*
G01*
X250901024Y-96192878D01*
G75*
G02*
X250104940Y-95733258I-168232J627852D01*
G01*
G37*
D11*
X242197040Y-95005164D03*
X247570189Y-95739513D03*
D12*
X251355749Y-88617046D03*
X240730565Y-91464056D03*
D13*
X246043157Y-90040551D03*
%TD*%
%TO.C,S18*%
G36*
G01*
X219065406Y-97735092D02*
X218728941Y-96479388D01*
G75*
G02*
X219188561Y-95683304I627852J168232D01*
G01*
X220444264Y-95346839D01*
G75*
G02*
X221240348Y-95806459I168232J-627852D01*
G01*
X221576813Y-97062162D01*
G75*
G02*
X221117193Y-97858246I-627852J-168232D01*
G01*
X219861490Y-98194711D01*
G75*
G02*
X219065406Y-97735091I-168232J627852D01*
G01*
G37*
G36*
G01*
X231682999Y-96528298D02*
X231346534Y-95272594D01*
G75*
G02*
X231806154Y-94476510I627852J168232D01*
G01*
X233061857Y-94140045D01*
G75*
G02*
X233857941Y-94599665I168232J-627852D01*
G01*
X234194406Y-95855368D01*
G75*
G02*
X233734786Y-96651452I-627852J-168232D01*
G01*
X232479083Y-96987917D01*
G75*
G02*
X231682999Y-96528297I-168232J627852D01*
G01*
G37*
D11*
X223775099Y-95800203D03*
X229148248Y-96534552D03*
D12*
X232933808Y-89412085D03*
X222308624Y-92259095D03*
D13*
X227621216Y-90835590D03*
%TD*%
%TO.C,S17*%
G36*
G01*
X200643465Y-98530132D02*
X200307000Y-97274428D01*
G75*
G02*
X200766620Y-96478344I627852J168232D01*
G01*
X202022323Y-96141879D01*
G75*
G02*
X202818407Y-96601499I168232J-627852D01*
G01*
X203154872Y-97857202D01*
G75*
G02*
X202695252Y-98653286I-627852J-168232D01*
G01*
X201439549Y-98989751D01*
G75*
G02*
X200643465Y-98530131I-168232J627852D01*
G01*
G37*
G36*
G01*
X213261058Y-97323338D02*
X212924593Y-96067634D01*
G75*
G02*
X213384213Y-95271550I627852J168232D01*
G01*
X214639916Y-94935085D01*
G75*
G02*
X215436000Y-95394705I168232J-627852D01*
G01*
X215772465Y-96650408D01*
G75*
G02*
X215312845Y-97446492I-627852J-168232D01*
G01*
X214057142Y-97782957D01*
G75*
G02*
X213261058Y-97323337I-168232J627852D01*
G01*
G37*
D11*
X205353158Y-96595243D03*
X210726307Y-97329592D03*
D12*
X214511867Y-90207125D03*
X203886683Y-93054135D03*
D13*
X209199275Y-91630630D03*
%TD*%
%TO.C,S16*%
G36*
G01*
X184292077Y-107052578D02*
X183955612Y-105796874D01*
G75*
G02*
X184415232Y-105000790I627852J168232D01*
G01*
X185670935Y-104664325D01*
G75*
G02*
X186467019Y-105123945I168232J-627852D01*
G01*
X186803484Y-106379648D01*
G75*
G02*
X186343864Y-107175732I-627852J-168232D01*
G01*
X185088161Y-107512197D01*
G75*
G02*
X184292077Y-107052577I-168232J627852D01*
G01*
G37*
G36*
G01*
X196909670Y-105845784D02*
X196573205Y-104590080D01*
G75*
G02*
X197032825Y-103793996I627852J168232D01*
G01*
X198288528Y-103457531D01*
G75*
G02*
X199084612Y-103917151I168232J-627852D01*
G01*
X199421077Y-105172854D01*
G75*
G02*
X198961457Y-105968938I-627852J-168232D01*
G01*
X197705754Y-106305403D01*
G75*
G02*
X196909670Y-105845783I-168232J627852D01*
G01*
G37*
D11*
X189001770Y-105117689D03*
X194374919Y-105852038D03*
D12*
X198160479Y-98729571D03*
X187535295Y-101576581D03*
D13*
X192847887Y-100153076D03*
%TD*%
%TO.C,S15*%
G36*
G01*
X167940688Y-115575024D02*
X167604223Y-114319320D01*
G75*
G02*
X168063843Y-113523236I627852J168232D01*
G01*
X169319546Y-113186771D01*
G75*
G02*
X170115630Y-113646391I168232J-627852D01*
G01*
X170452095Y-114902094D01*
G75*
G02*
X169992475Y-115698178I-627852J-168232D01*
G01*
X168736772Y-116034643D01*
G75*
G02*
X167940688Y-115575023I-168232J627852D01*
G01*
G37*
G36*
G01*
X180558281Y-114368230D02*
X180221816Y-113112526D01*
G75*
G02*
X180681436Y-112316442I627852J168232D01*
G01*
X181937139Y-111979977D01*
G75*
G02*
X182733223Y-112439597I168232J-627852D01*
G01*
X183069688Y-113695300D01*
G75*
G02*
X182610068Y-114491384I-627852J-168232D01*
G01*
X181354365Y-114827849D01*
G75*
G02*
X180558281Y-114368229I-168232J627852D01*
G01*
G37*
D11*
X172650381Y-113640135D03*
X178023530Y-114374484D03*
D12*
X181809090Y-107252017D03*
X171183906Y-110099027D03*
D13*
X176496498Y-108675522D03*
%TD*%
%TO.C,S14*%
G36*
G01*
X112644203Y-110372760D02*
X112980668Y-109117057D01*
G75*
G02*
X113776752Y-108657437I627852J-168232D01*
G01*
X115032455Y-108993902D01*
G75*
G02*
X115492075Y-109789986I-168232J-627852D01*
G01*
X115155610Y-111045689D01*
G75*
G02*
X114359526Y-111505309I-627852J168232D01*
G01*
X113103823Y-111168844D01*
G75*
G02*
X112644203Y-110372760I168232J627852D01*
G01*
G37*
G36*
G01*
X124174755Y-115636443D02*
X124511220Y-114380740D01*
G75*
G02*
X125307304Y-113921120I627852J-168232D01*
G01*
X126563007Y-114257585D01*
G75*
G02*
X127022627Y-115053669I-168232J-627852D01*
G01*
X126686162Y-116309372D01*
G75*
G02*
X125890078Y-116768992I-627852J168232D01*
G01*
X124634375Y-116432527D01*
G75*
G02*
X124174755Y-115636443I168232J627852D01*
G01*
G37*
D11*
X117690360Y-111051945D03*
X121976470Y-114374484D03*
D12*
X128816094Y-110099027D03*
X118190910Y-107252017D03*
D13*
X123503502Y-108675522D03*
%TD*%
%TO.C,S13*%
G36*
G01*
X96292814Y-101850314D02*
X96629279Y-100594611D01*
G75*
G02*
X97425363Y-100134991I627852J-168232D01*
G01*
X98681066Y-100471456D01*
G75*
G02*
X99140686Y-101267540I-168232J-627852D01*
G01*
X98804221Y-102523243D01*
G75*
G02*
X98008137Y-102982863I-627852J168232D01*
G01*
X96752434Y-102646398D01*
G75*
G02*
X96292814Y-101850314I168232J627852D01*
G01*
G37*
G36*
G01*
X107823366Y-107113997D02*
X108159831Y-105858294D01*
G75*
G02*
X108955915Y-105398674I627852J-168232D01*
G01*
X110211618Y-105735139D01*
G75*
G02*
X110671238Y-106531223I-168232J-627852D01*
G01*
X110334773Y-107786926D01*
G75*
G02*
X109538689Y-108246546I-627852J168232D01*
G01*
X108282986Y-107910081D01*
G75*
G02*
X107823366Y-107113997I168232J627852D01*
G01*
G37*
D11*
X101338971Y-102529499D03*
X105625081Y-105852038D03*
D12*
X112464705Y-101576581D03*
X101839521Y-98729571D03*
D13*
X107152113Y-100153076D03*
%TD*%
%TO.C,S12*%
G36*
G01*
X79941426Y-93327868D02*
X80277891Y-92072165D01*
G75*
G02*
X81073975Y-91612545I627852J-168232D01*
G01*
X82329678Y-91949010D01*
G75*
G02*
X82789298Y-92745094I-168232J-627852D01*
G01*
X82452833Y-94000797D01*
G75*
G02*
X81656749Y-94460417I-627852J168232D01*
G01*
X80401046Y-94123952D01*
G75*
G02*
X79941426Y-93327868I168232J627852D01*
G01*
G37*
G36*
G01*
X91471978Y-98591551D02*
X91808443Y-97335848D01*
G75*
G02*
X92604527Y-96876228I627852J-168232D01*
G01*
X93860230Y-97212693D01*
G75*
G02*
X94319850Y-98008777I-168232J-627852D01*
G01*
X93983385Y-99264480D01*
G75*
G02*
X93187301Y-99724100I-627852J168232D01*
G01*
X91931598Y-99387635D01*
G75*
G02*
X91471978Y-98591551I168232J627852D01*
G01*
G37*
D11*
X84987583Y-94007053D03*
X89273693Y-97329592D03*
D12*
X96113317Y-93054135D03*
X85488133Y-90207125D03*
D13*
X90800725Y-91630630D03*
%TD*%
%TO.C,S11*%
G36*
G01*
X61519485Y-92532828D02*
X61855950Y-91277125D01*
G75*
G02*
X62652034Y-90817505I627852J-168232D01*
G01*
X63907737Y-91153970D01*
G75*
G02*
X64367357Y-91950054I-168232J-627852D01*
G01*
X64030892Y-93205757D01*
G75*
G02*
X63234808Y-93665377I-627852J168232D01*
G01*
X61979105Y-93328912D01*
G75*
G02*
X61519485Y-92532828I168232J627852D01*
G01*
G37*
G36*
G01*
X73050037Y-97796511D02*
X73386502Y-96540808D01*
G75*
G02*
X74182586Y-96081188I627852J-168232D01*
G01*
X75438289Y-96417653D01*
G75*
G02*
X75897909Y-97213737I-168232J-627852D01*
G01*
X75561444Y-98469440D01*
G75*
G02*
X74765360Y-98929060I-627852J168232D01*
G01*
X73509657Y-98592595D01*
G75*
G02*
X73050037Y-97796511I168232J627852D01*
G01*
G37*
D11*
X66565642Y-93212013D03*
X70851752Y-96534552D03*
D12*
X77691376Y-92259095D03*
X67066192Y-89412085D03*
D13*
X72378784Y-90835590D03*
%TD*%
%TO.C,S10*%
G36*
G01*
X43097544Y-91737789D02*
X43434009Y-90482086D01*
G75*
G02*
X44230093Y-90022466I627852J-168232D01*
G01*
X45485796Y-90358931D01*
G75*
G02*
X45945416Y-91155015I-168232J-627852D01*
G01*
X45608951Y-92410718D01*
G75*
G02*
X44812867Y-92870338I-627852J168232D01*
G01*
X43557164Y-92533873D01*
G75*
G02*
X43097544Y-91737789I168232J627852D01*
G01*
G37*
G36*
G01*
X54628096Y-97001472D02*
X54964561Y-95745769D01*
G75*
G02*
X55760645Y-95286149I627852J-168232D01*
G01*
X57016348Y-95622614D01*
G75*
G02*
X57475968Y-96418698I-168232J-627852D01*
G01*
X57139503Y-97674401D01*
G75*
G02*
X56343419Y-98134021I-627852J168232D01*
G01*
X55087716Y-97797556D01*
G75*
G02*
X54628096Y-97001472I168232J627852D01*
G01*
G37*
D11*
X48143701Y-92416974D03*
X52429811Y-95739513D03*
D12*
X59269435Y-91464056D03*
X48644251Y-88617046D03*
D13*
X53956843Y-90040551D03*
%TD*%
%TO.C,S9*%
G36*
G01*
X232699195Y-79070425D02*
X232362730Y-77814721D01*
G75*
G02*
X232822350Y-77018637I627852J168232D01*
G01*
X234078053Y-76682172D01*
G75*
G02*
X234874137Y-77141792I168232J-627852D01*
G01*
X235210602Y-78397495D01*
G75*
G02*
X234750982Y-79193579I-627852J-168232D01*
G01*
X233495279Y-79530044D01*
G75*
G02*
X232699195Y-79070424I-168232J627852D01*
G01*
G37*
G36*
G01*
X245316788Y-77863631D02*
X244980323Y-76607927D01*
G75*
G02*
X245439943Y-75811843I627852J168232D01*
G01*
X246695646Y-75475378D01*
G75*
G02*
X247491730Y-75934998I168232J-627852D01*
G01*
X247828195Y-77190701D01*
G75*
G02*
X247368575Y-77986785I-627852J-168232D01*
G01*
X246112872Y-78323250D01*
G75*
G02*
X245316788Y-77863630I-168232J627852D01*
G01*
G37*
D11*
X237408888Y-77135536D03*
X242782037Y-77869885D03*
D12*
X246567597Y-70747418D03*
X235942413Y-73594428D03*
D13*
X241255005Y-72170923D03*
%TD*%
%TO.C,S8*%
G36*
G01*
X214277254Y-79865465D02*
X213940789Y-78609761D01*
G75*
G02*
X214400409Y-77813677I627852J168232D01*
G01*
X215656112Y-77477212D01*
G75*
G02*
X216452196Y-77936832I168232J-627852D01*
G01*
X216788661Y-79192535D01*
G75*
G02*
X216329041Y-79988619I-627852J-168232D01*
G01*
X215073338Y-80325084D01*
G75*
G02*
X214277254Y-79865464I-168232J627852D01*
G01*
G37*
G36*
G01*
X226894847Y-78658671D02*
X226558382Y-77402967D01*
G75*
G02*
X227018002Y-76606883I627852J168232D01*
G01*
X228273705Y-76270418D01*
G75*
G02*
X229069789Y-76730038I168232J-627852D01*
G01*
X229406254Y-77985741D01*
G75*
G02*
X228946634Y-78781825I-627852J-168232D01*
G01*
X227690931Y-79118290D01*
G75*
G02*
X226894847Y-78658670I-168232J627852D01*
G01*
G37*
D11*
X218986947Y-77930576D03*
X224360096Y-78664925D03*
D12*
X228145656Y-71542458D03*
X217520472Y-74389468D03*
D13*
X222833064Y-72965963D03*
%TD*%
%TO.C,S7*%
G36*
G01*
X195855313Y-80660504D02*
X195518848Y-79404800D01*
G75*
G02*
X195978468Y-78608716I627852J168232D01*
G01*
X197234171Y-78272251D01*
G75*
G02*
X198030255Y-78731871I168232J-627852D01*
G01*
X198366720Y-79987574D01*
G75*
G02*
X197907100Y-80783658I-627852J-168232D01*
G01*
X196651397Y-81120123D01*
G75*
G02*
X195855313Y-80660503I-168232J627852D01*
G01*
G37*
G36*
G01*
X208472906Y-79453710D02*
X208136441Y-78198006D01*
G75*
G02*
X208596061Y-77401922I627852J168232D01*
G01*
X209851764Y-77065457D01*
G75*
G02*
X210647848Y-77525077I168232J-627852D01*
G01*
X210984313Y-78780780D01*
G75*
G02*
X210524693Y-79576864I-627852J-168232D01*
G01*
X209268990Y-79913329D01*
G75*
G02*
X208472906Y-79453709I-168232J627852D01*
G01*
G37*
D11*
X200565006Y-78725615D03*
X205938155Y-79459964D03*
D12*
X209723715Y-72337497D03*
X199098531Y-75184507D03*
D13*
X204411123Y-73761002D03*
%TD*%
%TO.C,S6*%
G36*
G01*
X179503924Y-89182950D02*
X179167459Y-87927246D01*
G75*
G02*
X179627079Y-87131162I627852J168232D01*
G01*
X180882782Y-86794697D01*
G75*
G02*
X181678866Y-87254317I168232J-627852D01*
G01*
X182015331Y-88510020D01*
G75*
G02*
X181555711Y-89306104I-627852J-168232D01*
G01*
X180300008Y-89642569D01*
G75*
G02*
X179503924Y-89182949I-168232J627852D01*
G01*
G37*
G36*
G01*
X192121517Y-87976156D02*
X191785052Y-86720452D01*
G75*
G02*
X192244672Y-85924368I627852J168232D01*
G01*
X193500375Y-85587903D01*
G75*
G02*
X194296459Y-86047523I168232J-627852D01*
G01*
X194632924Y-87303226D01*
G75*
G02*
X194173304Y-88099310I-627852J-168232D01*
G01*
X192917601Y-88435775D01*
G75*
G02*
X192121517Y-87976155I-168232J627852D01*
G01*
G37*
D11*
X184213617Y-87248061D03*
X189586766Y-87982410D03*
D12*
X193372326Y-80859943D03*
X182747142Y-83706953D03*
D13*
X188059734Y-82283448D03*
%TD*%
%TO.C,S2*%
G36*
G01*
X84729578Y-75458240D02*
X85066043Y-74202537D01*
G75*
G02*
X85862127Y-73742917I627852J-168232D01*
G01*
X87117830Y-74079382D01*
G75*
G02*
X87577450Y-74875466I-168232J-627852D01*
G01*
X87240985Y-76131169D01*
G75*
G02*
X86444901Y-76590789I-627852J168232D01*
G01*
X85189198Y-76254324D01*
G75*
G02*
X84729578Y-75458240I168232J627852D01*
G01*
G37*
G36*
G01*
X96260130Y-80721923D02*
X96596595Y-79466220D01*
G75*
G02*
X97392679Y-79006600I627852J-168232D01*
G01*
X98648382Y-79343065D01*
G75*
G02*
X99108002Y-80139149I-168232J-627852D01*
G01*
X98771537Y-81394852D01*
G75*
G02*
X97975453Y-81854472I-627852J168232D01*
G01*
X96719750Y-81518007D01*
G75*
G02*
X96260130Y-80721923I168232J627852D01*
G01*
G37*
D11*
X89775735Y-76137425D03*
X94061845Y-79459964D03*
D12*
X100901469Y-75184507D03*
X90276285Y-72337497D03*
D13*
X95588877Y-73761002D03*
%TD*%
%TO.C,S1*%
G36*
G01*
X66307637Y-74663201D02*
X66644102Y-73407498D01*
G75*
G02*
X67440186Y-72947878I627852J-168232D01*
G01*
X68695889Y-73284343D01*
G75*
G02*
X69155509Y-74080427I-168232J-627852D01*
G01*
X68819044Y-75336130D01*
G75*
G02*
X68022960Y-75795750I-627852J168232D01*
G01*
X66767257Y-75459285D01*
G75*
G02*
X66307637Y-74663201I168232J627852D01*
G01*
G37*
G36*
G01*
X77838189Y-79926884D02*
X78174654Y-78671181D01*
G75*
G02*
X78970738Y-78211561I627852J-168232D01*
G01*
X80226441Y-78548026D01*
G75*
G02*
X80686061Y-79344110I-168232J-627852D01*
G01*
X80349596Y-80599813D01*
G75*
G02*
X79553512Y-81059433I-627852J168232D01*
G01*
X78297809Y-80722968D01*
G75*
G02*
X77838189Y-79926884I168232J627852D01*
G01*
G37*
D11*
X71353794Y-75342386D03*
X75639904Y-78664925D03*
D12*
X82479528Y-74389468D03*
X71854344Y-71542458D03*
D13*
X77166936Y-72965963D03*
%TD*%
%TO.C,S0*%
G36*
G01*
X47885696Y-73868161D02*
X48222161Y-72612458D01*
G75*
G02*
X49018245Y-72152838I627852J-168232D01*
G01*
X50273948Y-72489303D01*
G75*
G02*
X50733568Y-73285387I-168232J-627852D01*
G01*
X50397103Y-74541090D01*
G75*
G02*
X49601019Y-75000710I-627852J168232D01*
G01*
X48345316Y-74664245D01*
G75*
G02*
X47885696Y-73868161I168232J627852D01*
G01*
G37*
G36*
G01*
X59416248Y-79131844D02*
X59752713Y-77876141D01*
G75*
G02*
X60548797Y-77416521I627852J-168232D01*
G01*
X61804500Y-77752986D01*
G75*
G02*
X62264120Y-78549070I-168232J-627852D01*
G01*
X61927655Y-79804773D01*
G75*
G02*
X61131571Y-80264393I-627852J168232D01*
G01*
X59875868Y-79927928D01*
G75*
G02*
X59416248Y-79131844I168232J627852D01*
G01*
G37*
D11*
X52931853Y-74547346D03*
X57217963Y-77869885D03*
D12*
X64057587Y-73594428D03*
X53432403Y-70747418D03*
D13*
X58744995Y-72170923D03*
%TD*%
M02*
